<?xml version="1.0" encoding="UTF-8"?>
<svg width="269px" height="274px" viewBox="0 0 269 274" version="1.1" xmlns="http://www.w3.org/2000/svg" xmlns:xlink="http://www.w3.org/1999/xlink">
    <!-- Generator: Sketch 49.3 (51167) - http://www.bohemiancoding.com/sketch -->
    <title>equation-Postman</title>
    <desc>Created with Sketch.</desc>
    <defs>
        <path d="M5.97804664,25.7286756 L11.8911678,20.0735904 C12.4228219,19.5671832 12.7033491,18.8940171 12.7327493,18.2110418 C13.5143054,18.1485072 14.2787114,17.8297036 14.8875412,17.2521787 L17.1942342,15.0561124 C17.9500651,14.336352 18.3114429,13.3554179 18.2808176,12.3842932 C19.226525,12.4836127 20.2077577,12.1868802 20.9464384,11.4855123 L22.7521025,9.76642524 C24.0861379,8.49734174 24.1375883,6.36871472 22.8684784,5.039549 L19.4678519,1.4738535 C18.197517,0.143461614 16.0684504,0.0919625729 14.73564,1.36104608 L12.9287509,3.08135928 C12.1900701,3.78272717 11.8470674,4.7477211 11.9009679,5.69677485 C10.9307603,5.61952629 9.9323775,5.9334252 9.1765466,6.65318561 L6.8698536,8.84802568 C6.28429903,9.40593196 5.93517131,10.1220139 5.82124542,10.8675238 C5.10583984,10.8405481 4.38063418,11.0857816 3.82447984,11.615486 L0.22295174,15.0438508 L5.97804664,25.7286756 Z" id="path-1"></path>
        <path d="M12.8319751,0.419349332 C6.08217246,0.755319266 0.535329177,6.19827741 0.0588004588,12.9421994 C-0.148226157,15.8739663 0.590454607,18.6254864 1.99676558,20.9245508 L24.8088936,21.19676 C26.147829,19.1331198 26.9416352,16.6832369 26.9783855,14.043298 C27.0825113,6.54283052 21.0444392,0.402182986 13.5241055,0.402182986 C13.2950287,0.402182986 13.0635019,0.408313824 12.8319751,0.419349332" id="path-3"></path>
        <path d="M12.8319751,0.419349332 C6.08217246,0.755319266 0.535329177,6.19827741 0.0588004588,12.9421994 C-0.148226157,15.8739663 0.590454607,18.6254864 1.99676558,20.9245508 L24.8088936,21.19676 C26.147829,19.1331198 26.9416352,16.6832369 26.9783855,14.043298 C27.0825113,6.54283052 21.0444392,0.402182986 13.5241055,0.402182986 C13.2950287,0.402182986 13.0635019,0.408313824 12.8319751,0.419349332" id="path-5"></path>
        <path d="M12.8319751,0.419349332 C6.08217246,0.755319266 0.535329177,6.19827741 0.0588004588,12.9421994 C-0.148226157,15.8739663 0.590454607,18.6254864 1.99676558,20.9245508 L24.8088936,21.19676 C26.147829,19.1331198 26.9416352,16.6832369 26.9783855,14.043298 C27.0825113,6.54283052 21.0444392,0.402182986 13.5241055,0.402182986 C13.2950287,0.402182986 13.0635019,0.408313824 12.8319751,0.419349332" id="path-7"></path>
        <path d="M12.8319751,0.419349332 C6.08217246,0.755319266 0.535329177,6.19827741 0.0588004588,12.9421994 C-0.148226157,15.8739663 0.590454607,18.6254864 1.99676558,20.9245508 L24.8088936,21.19676 C26.147829,19.1331198 26.9416352,16.6832369 26.9783855,14.043298 C27.0825113,6.54283052 21.0444392,0.402182986 13.5241055,0.402182986 C13.2950287,0.402182986 13.0635019,0.408313824 12.8319751,0.419349332" id="path-9"></path>
        <path d="M12.8319751,0.419349332 C6.08217246,0.755319266 0.535329177,6.19827741 0.0588004588,12.9421994 C-0.148226157,15.8739663 0.590454607,18.6254864 1.99676558,20.9245508 L24.8088936,21.19676 C26.147829,19.1331198 26.9416352,16.6832369 26.9783855,14.043298 C27.0825113,6.54283052 21.0444392,0.402182986 13.5241055,0.402182986 C13.2950287,0.402182986 13.0635019,0.408313824 12.8319751,0.419349332" id="path-11"></path>
        <path d="M12.8319751,0.419349332 C6.08217246,0.755319266 0.535329177,6.19827741 0.0588004588,12.9421994 C-0.148226157,15.8739663 0.590454607,18.6254864 1.99676558,20.9245508 L24.8088936,21.19676 C26.147829,19.1331198 26.9416352,16.6832369 26.9783855,14.043298 C27.0825113,6.54283052 21.0444392,0.402182986 13.5241055,0.402182986 C13.2950287,0.402182986 13.0635019,0.408313824 12.8319751,0.419349332" id="path-13"></path>
        <path d="M12.8319751,0.419349332 C6.08217246,0.755319266 0.535329177,6.19827741 0.0588004588,12.9421994 C-0.148226157,15.8739663 0.590454607,18.6254864 1.99676558,20.9245508 L24.8088936,21.19676 C26.147829,19.1331198 26.9416352,16.6832369 26.9783855,14.043298 C27.0825113,6.54283052 21.0444392,0.402182986 13.5241055,0.402182986 C13.2950287,0.402182986 13.0635019,0.408313824 12.8319751,0.419349332" id="path-15"></path>
        <path d="M12.8319751,0.419349332 C6.08217246,0.755319266 0.535329177,6.19827741 0.0588004588,12.9421994 C-0.148226157,15.8739663 0.590454607,18.6254864 1.99676558,20.9245508 L24.8088936,21.19676 C26.147829,19.1331198 26.9416352,16.6832369 26.9783855,14.043298 C27.0825113,6.54283052 21.0444392,0.402182986 13.5241055,0.402182986 C13.2950287,0.402182986 13.0635019,0.408313824 12.8319751,0.419349332" id="path-17"></path>
        <path d="M12.8319751,0.419349332 C6.08217246,0.755319266 0.535329177,6.19827741 0.0588004588,12.9421994 C-0.148226157,15.8739663 0.590454607,18.6254864 1.99676558,20.9245508 L24.8088936,21.19676 C26.147829,19.1331198 26.9416352,16.6832369 26.9783855,14.043298 C27.0825113,6.54283052 21.0444392,0.402182986 13.5241055,0.402182986 C13.2950287,0.402182986 13.0635019,0.408313824 12.8319751,0.419349332" id="path-19"></path>
        <path d="M12.8319751,0.419349332 C6.08217246,0.755319266 0.535329177,6.19827741 0.0588004588,12.9421994 C-0.148226157,15.8739663 0.590454607,18.6254864 1.99676558,20.9245508 L24.8088936,21.19676 C26.147829,19.1331198 26.9416352,16.6832369 26.9783855,14.043298 C27.0825113,6.54283052 21.0444392,0.402182986 13.5241055,0.402182986 C13.2950287,0.402182986 13.0635019,0.408313824 12.8319751,0.419349332" id="path-21"></path>
        <path d="M12.8319751,0.419349332 C6.08217246,0.755319266 0.535329177,6.19827741 0.0588004588,12.9421994 C-0.148226157,15.8739663 0.590454607,18.6254864 1.99676558,20.9245508 L24.8088936,21.19676 C26.147829,19.1331198 26.9416352,16.6832369 26.9783855,14.043298 C27.0825113,6.54283052 21.0444392,0.402182986 13.5241055,0.402182986 C13.2950287,0.402182986 13.0635019,0.408313824 12.8319751,0.419349332" id="path-23"></path>
        <path d="M12.8319751,0.419349332 C6.08217246,0.755319266 0.535329177,6.19827741 0.0588004588,12.9421994 C-0.148226157,15.8739663 0.590454607,18.6254864 1.99676558,20.9245508 L24.8088936,21.19676 C26.147829,19.1331198 26.9416352,16.6832369 26.9783855,14.043298 C27.0825113,6.54283052 21.0444392,0.402182986 13.5241055,0.402182986 C13.2950287,0.402182986 13.0635019,0.408313824 12.8319751,0.419349332" id="path-25"></path>
        <path d="M28.6250845,0.646190346 L32.1126867,52.4456423 C32.2253876,54.3363927 30.7921264,55.9659695 28.9031617,56.0983956 L23.9884233,56.4368179 C22.3028102,56.55453 20.7850233,55.4325866 20.4003703,53.7882958 L16.3578388,33.4890906 L12.0972555,53.3861128 C11.6672772,55.0205943 10.1188651,56.1057527 8.43815197,55.9488032 L3.5332137,55.4926688 C1.649149,55.3161007 0.26121317,53.6534174 0.42658946,51.7675715 L5.26047718,1.3070947 L28.6250845,0.646190346 Z" id="path-27"></path>
        <path d="M12.8319751,0.419349332 C6.08217246,0.755319266 0.535329177,6.19827741 0.0588004588,12.9421994 C-0.148226157,15.8739663 0.590454607,18.6254864 1.99676558,20.9245508 L24.8088936,21.19676 C26.147829,19.1331198 26.9416352,16.6832369 26.9783855,14.043298 C27.0825113,6.54283052 21.0444392,0.402182986 13.5241055,0.402182986 C13.2950287,0.402182986 13.0635019,0.408313824 12.8319751,0.419349332" id="path-29"></path>
        <path d="M0.466728642,5.6305618 C0.512053995,10.1747391 4.228733,13.8176831 8.76861842,13.7723149 C10.0156781,13.7588271 11.1965874,13.4682253 12.2500956,12.9593658 C11.8617676,7.02839291 7.62690951,2.13107936 1.98941552,0.774937948 C1.01430791,2.14334103 0.448353498,3.82196453 0.466728642,5.6305618" id="path-31"></path>
        <path d="M3.71470289,23.6126852 L19.2269989,23.1639078 C20.8685117,23.1160873 22.1731469,21.7329702 22.1265966,20.0899055 L21.6427178,3.33187243 C21.5949424,1.68880779 20.2131316,0.382939257 18.5703938,0.429533627 L3.05809777,0.878310983 C1.41658496,0.926131521 0.111949779,2.30924862 0.159725151,3.95353942 L0.643603927,20.7103464 C0.69015429,22.3546372 2.07319008,23.6605057 3.71470289,23.6126852" id="path-33"></path>
    </defs>
    <g id="Comps" stroke="none" stroke-width="1" fill="none" fill-rule="evenodd">
        <g id="Update-3.0---Product:-Why-Postman" transform="translate(-833.000000, -836.000000)">
            <g id="Group" transform="translate(339.000000, 828.000000)">
                <g id="Postman" transform="translate(493.000000, 8.000000)">
                    <g id="Brand/Postman-Mark" transform="translate(0.956044, 0.498168)">
                        <g id="Page-1">
                            <g id="Group-3" transform="translate(0.000000, 0.005598)" fill="#FF6C37">
                                <path d="M240.681098,52.2284522 C195.311208,-6.49935455 110.942471,-17.3267691 52.2146644,28.0431209 C-6.49074857,73.4130109 -17.32936,157.781748 28.04053,216.498357 C73.399223,275.226164 157.76796,286.064776 216.495766,240.694886 C275.223573,195.336193 286.050988,110.945062 240.681098,52.2284522 Z" id="Fill-1"></path>
                            </g>
                            <g id="Group" transform="translate(51.678058, 51.678058)">
                                <path d="M109.108487,37.3504028 C99.4343549,41.7731832 83.6802988,55.1199031 58.1289442,80.5704855 L65.3957405,87.8372818 L67.8142736,90.2670119 L117.203855,40.8774302 C118.749029,39.3322563 120.697292,38.5596693 122.712736,38.212565 C119.040149,35.4693214 115.513121,34.4280086 109.108487,37.3504028" id="Fill-4" fill="#FFFFFF"></path>
                                <path d="M130.889842,56.2004052 L79.1936959,101.62628 C83.795627,106.239408 86.3149323,108.747516 87.6137742,110.057555 C108.092927,90.6197146 127.586752,70.8011792 130.889842,56.2004052" id="Fill-6" fill="#FFFFFF"></path>
                                <path d="M42.5943476,96.33014 C42.672726,96.464503 42.7511044,96.4421092 42.8294828,96.4309123 L63.7789063,91.9073596 L55.2916465,83.4312967 L42.6279383,96.083808 C42.5831507,96.1285956 42.5159692,96.1845802 42.5943476,96.33014" id="Fill-8" fill="#FFFFFF"></path>
                                <path d="M137.549765,26.1534901 L155.072933,8.63032186 C151.534709,5.87588136 147.246291,4.50985802 142.957874,4.50985802 C137.896869,4.50985802 132.835865,6.42453008 129.017718,10.2426773 C125.289146,13.9712492 123.240111,18.9202846 123.240111,24.1940304 C123.240111,29.4677763 125.289146,34.4280086 129.017718,38.1565805 C134.828915,43.9565812 143.472932,45.5017552 150.8405,42.2882412 L137.549765,29.0087029 C137.16907,28.6280078 136.956329,28.1129498 136.956329,27.5866949 C136.956329,27.0492431 137.16907,26.5341852 137.549765,26.1534901" id="Fill-10" fill="#FFFFFF"></path>
                                <path d="M156.334825,30.7240699 C155.987721,30.7240699 155.640617,30.6009038 155.3383,30.3657687 C154.688879,29.8171199 154.588107,28.8317916 155.147953,28.1711738 C156.312432,26.7603628 156.547567,24.7785093 155.707798,23.1213662 C155.327103,22.3487792 155.640617,21.4194355 156.413204,21.0387404 C157.174594,20.6580454 158.115135,20.971559 158.49583,21.732949 C159.87305,24.4761926 159.492355,27.7904788 157.521698,30.1530273 C157.219382,30.5225254 156.782702,30.7240699 156.334825,30.7240699 M158.003165,11.3870018 L141.823627,27.5889343 L154.464941,40.2302487 C155.360694,39.5920247 156.189266,38.8866192 156.939459,38.1588199 C160.668031,34.4302479 162.717066,29.4700157 162.717066,24.1962698 C162.717066,19.4487788 161.059923,14.9700138 158.003165,11.3870018" id="Fill-12" fill="#FFFFFF"></path>
                                <path d="M120.043392,43.7248051 L70.7993705,92.9800238 L76.4650083,98.6456616 L128.60903,52.8502889 C129.919069,51.6970069 130.669262,50.0958484 130.725247,48.3603269 C130.781231,46.6136086 130.131811,44.9676624 128.90015,43.7248051 C126.459223,41.2950751 122.495516,41.2838782 120.043392,43.7248051" id="Fill-14" fill="#FFFFFF"></path>
                                <path d="M28.1716044,148.772 C28.1716044,148.772 28.1828013,148.772 28.1939983,148.760803 C51.673924,136.992848 70.652691,124.877788 84.615241,112.751532 L76.6542361,104.801724 L55.7272064,108.048829 L14.2762359,149.499799 L27.5445773,162.768141 C27.8692878,163.081654 28.1939983,163.003276 28.4179365,162.891307 C28.6418748,162.768141 28.8770099,162.533006 28.7762377,162.085129 L26.5144614,152.388603 C26.1561602,150.944201 26.8503687,149.466209 28.1716044,148.772" id="Fill-16" fill="#FFFFFF"></path>
                                <path d="M23.3602911,164.288682 L11.4243822,152.352773 L1.3023732,162.474782 C1.26878246,162.497176 1.22399481,162.55316 1.25758555,162.653932 C1.3023732,162.765901 1.36955467,162.777098 1.41434233,162.788295 L23.3602911,164.288682 Z" id="Fill-18" fill="#FFFFFF"></path>
                                <path d="M61.0737322,102.705662 L61.1073229,102.705662 C61.1521106,102.705662 61.2192921,102.716859 61.2640797,102.716859 L73.0320349,101.182882 L67.8254705,95.9539238 L61.0737322,102.705662 Z" id="Fill-20" fill="#FFFFFF"></path>
                                <path d="M158.500308,21.7351884 C158.119613,20.9737983 157.179073,20.6490879 156.406486,21.0409798 C155.645096,21.4216749 155.331582,22.3510186 155.712277,23.1236056 C156.540849,24.7695517 156.31691,26.7514053 155.141235,28.1734132 C154.581389,28.834031 154.682161,29.8193593 155.342779,30.368008 C155.633899,30.6031432 155.981003,30.7263092 156.339304,30.7263092 C156.787181,30.7263092 157.22386,30.5247648 157.526177,30.1552667 C159.496834,27.7927181 159.877529,24.478432 158.500308,21.7351884" id="Fill-22" fill="#FF6C37"></path>
                            </g>
                        </g>
                    </g>
                    <g id="Illustration/Spaceman---Point-Up" transform="translate(219.783883, 184.271062)">
                        <g id="Spaceman-Left-1-Copy" transform="translate(24.963370, 44.615385) scale(-1, 1) translate(-24.963370, -44.615385) ">
                            <ellipse id="Oval-2" fill="#F4F4F4" cx="19.1208791" cy="84.4505495" rx="19.1208791" ry="4.78021978"></ellipse>
                            <g id="Group" transform="translate(1.062271, 0.000000)">
                                <g id="arm" transform="translate(23.926136, 21.743224)">
                                    <mask id="mask-2" fill="white">
                                        <use xlink:href="#path-1"></use>
                                    </mask>
                                    <use id="Shape" fill="#E8E0CB" xlink:href="#path-1"></use>
                                    <polygon id="Rectangle-path" fill="#BCB199" mask="url(#mask-2)" points="3.78540047 9.51645953 4.52919467 8.79484339 14.2802221 18.8455577 13.5364279 19.5671738"></polygon>
                                    <polygon id="Rectangle-path" fill="#BCB199" mask="url(#mask-2)" points="9.77266029 4.20744903 10.5164545 3.4858329 20.2674819 13.5365472 19.5236877 14.2581633"></polygon>
                                </g>
                                <polygon id="Rectangle-path" fill="#BCB199" points="5.89128954 2.6657027 13.4287856 15.0135969 12.3728327 15.6581798 4.83533665 3.31028554"></polygon>
                                <path d="M3.69370557,5.31192719 C5.06517436,5.97426616 6.70536873,5.38197046 7.35660457,3.98970693 C8.00905089,2.5974434 7.42560168,0.932379774 6.05534336,0.271269641 C4.68387457,-0.391069321 3.0436802,0.201226374 2.39123388,1.59348991 C1.73999804,2.98452461 2.32223678,4.64958823 3.69370557,5.31192719" id="Shape" fill="#F99D78"></path>
                                <path d="M6.32274824,31.6322664 C4.91521226,29.3319759 4.1777565,26.5816818 4.38478312,23.6486889 C4.86008683,16.905993 10.4081551,11.464261 17.1579578,11.1270649 C24.9955689,10.7359175 31.410944,17.0224789 31.3043682,24.7510136 C31.2676179,27.3885002 30.4725867,29.8396093 29.1336512,31.9032494" id="Shape" fill="#E0DACE"></path>
                                <g transform="translate(4.325983, 10.707716)" id="Clipped">
                                    <g>
                                        <mask id="mask-4" fill="white">
                                            <use xlink:href="#path-3"></use>
                                        </mask>
                                        <g id="SVGID_137_"></g>
                                        <rect id="Rectangle-path" fill="#BCB199" mask="url(#mask-4)" transform="translate(-5.506408, 26.898822) rotate(180.710502) translate(5.506408, -26.898822) " x="-6.08398652" y="20.8245278" width="1.15515731" height="12.1485881"></rect>
                                    </g>
                                    <g>
                                        <mask id="mask-6" fill="white">
                                            <use xlink:href="#path-5"></use>
                                        </mask>
                                        <g id="SVGID_137_"></g>
                                        <rect id="Rectangle-path" fill="#BCB199" mask="url(#mask-6)" transform="translate(-13.378723, 26.604908) rotate(180.653209) translate(13.378723, -26.604908) " x="-13.9562952" y="20.5312997" width="1.15514356" height="12.1472174"></rect>
                                    </g>
                                    <g>
                                        <mask id="mask-8" fill="white">
                                            <use xlink:href="#path-7"></use>
                                        </mask>
                                        <g id="SVGID_137_"></g>
                                        <rect id="Rectangle-path" fill="#BCB199" mask="url(#mask-8)" transform="translate(12.709681, 50.770540) rotate(180.676126) translate(-12.709681, -50.770540) " x="-3.1971971" y="50.193033" width="31.8137569" height="1.15501483"></rect>
                                    </g>
                                    <g>
                                        <mask id="mask-10" fill="white">
                                            <use xlink:href="#path-9"></use>
                                        </mask>
                                        <g id="SVGID_137_"></g>
                                        <rect id="Rectangle-path" fill="#BCB199" mask="url(#mask-10)" transform="translate(13.304826, 56.409096) rotate(180.676126) translate(-13.304826, -56.409096) " x="-2.60143987" y="55.8315886" width="31.8125319" height="1.15501483"></rect>
                                    </g>
                                    <g>
                                        <mask id="mask-12" fill="white">
                                            <use xlink:href="#path-11"></use>
                                        </mask>
                                        <g id="SVGID_137_"></g>
                                        <rect id="Rectangle-path" fill="#BCB199" mask="url(#mask-12)" transform="translate(13.275782, 61.897921) rotate(180.676126) translate(-13.275782, -61.897921) " x="-2.63048362" y="61.320414" width="31.8125319" height="1.15501483"></rect>
                                    </g>
                                    <g>
                                        <mask id="mask-14" fill="white">
                                            <use xlink:href="#path-13"></use>
                                        </mask>
                                        <g id="SVGID_137_"></g>
                                        <rect id="Rectangle-path" fill="#BCB199" mask="url(#mask-14)" transform="translate(13.059106, 67.189740) rotate(180.676126) translate(-13.059106, -67.189740) " x="-2.84777243" y="66.6122322" width="31.8137569" height="1.15501483"></rect>
                                    </g>
                                </g>
                                <path d="M6.32274824,31.6322664 C4.91521226,29.3319759 4.1777565,26.5816818 4.38478312,23.6486889 C4.86008683,16.905993 10.4081551,11.464261 17.1579578,11.1270649 C24.9955689,10.7359175 31.410944,17.0224789 31.3043682,24.7510136 C31.2676179,27.3885002 30.4725867,29.8396093 29.1336512,31.9032494" id="Shape" fill="#E8E0CB"></path>
                                <g transform="translate(4.325983, 10.707716)" id="Clipped">
                                    <g>
                                        <mask id="mask-16" fill="white">
                                            <use xlink:href="#path-15"></use>
                                        </mask>
                                        <g id="SVGID_139_"></g>
                                        <rect id="Rectangle-path" fill="#BCB199" mask="url(#mask-16)" transform="translate(-5.506408, 26.898822) rotate(180.710502) translate(5.506408, -26.898822) " x="-6.08398652" y="20.8245278" width="1.15515731" height="12.1485881"></rect>
                                    </g>
                                    <g>
                                        <mask id="mask-18" fill="white">
                                            <use xlink:href="#path-17"></use>
                                        </mask>
                                        <g id="SVGID_139_"></g>
                                        <rect id="Rectangle-path" fill="#BCB199" mask="url(#mask-18)" transform="translate(-13.378723, 26.604908) rotate(180.653209) translate(13.378723, -26.604908) " x="-13.9562952" y="20.5312997" width="1.15514356" height="12.1472174"></rect>
                                    </g>
                                    <g>
                                        <mask id="mask-20" fill="white">
                                            <use xlink:href="#path-19"></use>
                                        </mask>
                                        <g id="SVGID_139_"></g>
                                        <rect id="Rectangle-path" fill="#BCB199" mask="url(#mask-20)" transform="translate(12.709681, 50.770540) rotate(180.676126) translate(-12.709681, -50.770540) " x="-3.1971971" y="50.193033" width="31.8137569" height="1.15501483"></rect>
                                    </g>
                                    <g>
                                        <mask id="mask-22" fill="white">
                                            <use xlink:href="#path-21"></use>
                                        </mask>
                                        <g id="SVGID_139_"></g>
                                        <rect id="Rectangle-path" fill="#BCB199" mask="url(#mask-22)" transform="translate(13.304826, 56.409096) rotate(180.676126) translate(-13.304826, -56.409096) " x="-2.60143987" y="55.8315886" width="31.8125319" height="1.15501483"></rect>
                                    </g>
                                    <g>
                                        <mask id="mask-24" fill="white">
                                            <use xlink:href="#path-23"></use>
                                        </mask>
                                        <g id="SVGID_139_"></g>
                                        <rect id="Rectangle-path" fill="#BCB199" mask="url(#mask-24)" transform="translate(13.275782, 61.897921) rotate(180.676126) translate(-13.275782, -61.897921) " x="-2.63048362" y="61.320414" width="31.8125319" height="1.15501483"></rect>
                                    </g>
                                    <g>
                                        <mask id="mask-26" fill="white">
                                            <use xlink:href="#path-25"></use>
                                        </mask>
                                        <g id="SVGID_139_"></g>
                                        <rect id="Rectangle-path" fill="#BCB199" mask="url(#mask-26)" transform="translate(13.059106, 67.189740) rotate(180.676126) translate(-13.059106, -67.189740) " x="-2.84777243" y="66.6122322" width="31.8137569" height="1.15501483"></rect>
                                    </g>
                                </g>
                                <g transform="translate(1.062271, 30.326398)" id="pants">
                                    <g>
                                        <mask id="mask-28" fill="white">
                                            <use xlink:href="#path-27"></use>
                                        </mask>
                                        <use id="Shape" fill="#E8E0CB" xlink:href="#path-27"></use>
                                        <polygon id="Rectangle-path" fill="#BCB199" mask="url(#mask-28)" points="43.2873791 28.345842 -7.44639174 28.5639972 -7.45042521 27.625979 43.2833456 27.4078237"></polygon>
                                        <polygon id="Rectangle-path" fill="#BCB199" mask="url(#mask-28)" points="42.9167101 34.8710174 -7.81706076 35.0891726 -7.82108897 34.1523805 42.9126819 33.9342253"></polygon>
                                        <polygon id="Rectangle-path" fill="#BCB199" mask="url(#mask-28)" points="42.8843602 41.2942915 -7.84941061 41.5073733 -7.85334514 40.5705812 42.8804257 40.3574994"></polygon>
                                    </g>
                                </g>
                                <g id="Clipped" transform="translate(4.325983, 10.707716)">
                                    <mask id="mask-30" fill="white">
                                        <use xlink:href="#path-29"></use>
                                    </mask>
                                    <g id="SVGID_143_"></g>
                                    <path d="M15.1680684,5.73233371 C15.2709692,10.2740586 19.0317485,13.8728607 23.5691839,13.7698626 C28.1066193,13.6668645 31.7020224,9.90375602 31.5991216,5.36203108 C31.4974458,0.82030615 27.7354414,-2.77849587 23.198006,-2.67549779 C18.6605706,-2.57372587 15.0651675,1.19060878 15.1680684,5.73233371" id="Shape" fill="#A6B4B9" mask="url(#mask-30)"></path>
                                </g>
                                <g id="Clipped" transform="translate(19.026097, 10.707716)">
                                    <mask id="mask-32" fill="white">
                                        <use xlink:href="#path-31"></use>
                                    </mask>
                                    <g id="SVGID_145_"></g>
                                    <g id="Group-2" mask="url(#mask-32)" fill="#CDDCE6" opacity="0.3">
                                        <g transform="translate(6.373626, 5.311355) scale(-1, 1) translate(-6.373626, -5.311355) translate(3.186813, 2.124542)" id="Oval-2">
                                            <path d="M4.51923285,4.72502754 C3.57074731,5.5209014 2.29491817,5.56194936 1.6695887,4.81671073 C1.04425924,4.07147209 1.306229,2.82215356 2.25471453,2.0262797 C3.20320007,1.23040583 4.47902921,1.18935787 5.10435868,1.93459651 C5.72968814,2.67983514 5.46771839,3.92915367 4.51923285,4.72502754 Z"></path>
                                        </g>
                                    </g>
                                    <path d="M12.1455675,9.98698968 C13.3723614,10.4057236 13.4989643,11.5636059 12.5253761,13.4606368 C3.2617683,18.0833954 1.2439329,10.0769819 0.229640392,9.26381027 C3.38293894,12.2331341 7.35491464,12.474194 12.1455675,9.98698968 Z" id="Path-2" fill-opacity="0.22" fill="#3D545E" mask="url(#mask-32)"></path>
                                </g>
                                <g id="backpack" transform="translate(0.000000, 32.930403)">
                                    <path d="M31.1279668,19.4375844 C31.1279668,19.4375844 25.2515959,21.7795646 21.5177668,17.3016003 C17.7839377,12.8260885 22.0138957,20.2149746 22.0138957,20.2149746 C22.0138957,20.2149746 25.2466959,23.443474 31.2590428,21.3847386" id="Shape" fill="#ED8370"></path>
                                    <mask id="mask-34" fill="white">
                                        <use xlink:href="#path-33"></use>
                                    </mask>
                                    <use id="Shape" fill="#ED8370" xlink:href="#path-33"></use>
                                    <path d="M0.626453793,20.1389523 L12.2003441,19.8042085 C14.0072332,19.7514833 15.4441694,18.2298092 15.391494,16.4199858 C15.3388186,14.6113885 13.8173567,13.1755462 12.0104676,13.2270453 L0.436577312,13.5605629 L0.626453793,20.1389523 L0.626453793,20.1389523 Z" id="Shape" fill="#3D545E" mask="url(#mask-34)"></path>
                                    <path d="M11.3318123,11.1045491 C11.3489625,11.7102759 11.8548914,12.1884813 12.4612711,12.1700888 C13.0664259,12.1529224 13.5441796,11.6465152 13.5270295,11.0395622 C13.5086543,10.4338354 13.0039504,9.95563001 12.3975706,9.97279636 C11.7911909,9.99241504 11.3146622,10.4975961 11.3318123,11.1045491" id="Shape" fill="#D6CEB2" mask="url(#mask-34)"></path>
                                    <path d="M7.59063313,11.2124518 C7.60778327,11.8194048 8.11371221,12.296384 8.72009195,12.2792177 C9.32524667,12.2608252 9.80300039,11.7556441 9.78585026,11.1486911 C9.76747512,10.5429643 9.26277118,10.0635328 8.65639145,10.0819253 C8.05001172,10.1003178 7.57225799,10.6054989 7.59063313,11.2124518" id="Shape" fill="#D6CEB2" mask="url(#mask-34)"></path>
                                    <path d="M13.0370256,18.4676858 L13.0370256,18.4676858 C13.4241286,18.4566503 13.731606,18.1317158 13.720581,17.7430207 L13.6470804,15.2011752 C13.6360553,14.8149324 13.3102028,14.5071643 12.9230997,14.5169736 C12.5359967,14.526783 12.2285193,14.8541697 12.2395444,15.2416387 L12.313045,17.7834842 C12.3240701,18.1709532 12.6499226,18.4787213 13.0370256,18.4676858" id="Shape" fill="#9EAFB2" mask="url(#mask-34)"></path>
                                    <path d="M9.99777691,18.5559698 L9.99777691,18.5559698 C10.3848799,18.5437082 10.6923573,18.2187737 10.6813322,17.8313048 L10.6078317,15.2894592 C10.5968066,14.9019903 10.270954,14.5942222 9.88385103,14.6040315 C9.49674801,14.6162932 9.18927061,14.9412276 9.20029569,15.3299228 L9.27379627,17.8705421 C9.28482135,18.2592373 9.61067389,18.5670053 9.99777691,18.5559698" id="Shape" fill="#9EAFB2" mask="url(#mask-34)"></path>
                                    <path d="M6.95975321,18.6442539 L6.95975321,18.6442539 C7.34685623,18.6332184 7.65433363,18.308284 7.64330854,17.9195888 L7.56980797,15.3777433 C7.55878288,14.9915005 7.23293034,14.6837324 6.84582732,14.6935418 C6.4587243,14.7045773 6.1512469,15.0295117 6.16227199,15.4182068 L6.23577256,17.9600524 C6.24679765,18.3462952 6.57265019,18.6540632 6.95975321,18.6442539" id="Shape" fill="#9EAFB2" mask="url(#mask-34)"></path>
                                    <path d="M3.9205045,18.7313118 L3.9205045,18.7313118 C4.30760752,18.7202763 4.61508492,18.3953419 4.60405983,18.0066467 L4.53055926,15.4660274 C4.51953417,15.0785584 4.19368163,14.7707903 3.80657861,14.7805997 C3.41947559,14.790409 3.11199819,15.1177958 3.12302327,15.5052647 L3.19652385,18.0471103 C3.20754893,18.4358054 3.53462648,18.7435735 3.9205045,18.7313118" id="Shape" fill="#9EAFB2" mask="url(#mask-34)"></path>
                                    <path d="M2.33779215,12.0413412 L5.82661937,11.9407954 C6.21862243,11.9273076 6.52977485,11.5986946 6.51874977,11.2050948 C6.50772468,10.8139474 6.17819711,10.5025008 5.78496904,10.5135363 L2.29614182,10.614082 C1.90413876,10.6251175 1.59298633,10.9549566 1.60401142,11.3485565 C1.61748653,11.7409301 1.9470141,12.0523767 2.33779215,12.0413412" id="Shape" fill="#7D9199" mask="url(#mask-34)"></path>
                                    <polygon id="Rectangle-path" fill="#3D545E" mask="url(#mask-34)" points="14.227806 8.38492305 -0.615820031 8.8140755 -0.842363944 0.97832134 14.0012621 0.549168886"></polygon>
                                </g>
                            </g>
                        </g>
                    </g>
                </g>
            </g>
        </g>
    </g>
</svg>